<?xml version="1.0" encoding="UTF-8" standalone="no"?>
<svg
   width="22.484586184924385mm"
   height="8.206658238922097mm"
   viewBox="0 0 22.484586184924385 8.206658238922097"
   version="1.1"
   id="svg36"
   sodipodi:docname="YLab Logo.svg"
   inkscape:version="1.2.1 (9c6d41e410, 2022-07-14)"
   xmlns:inkscape="http://www.inkscape.org/namespaces/inkscape"
   xmlns:sodipodi="http://sodipodi.sourceforge.net/DTD/sodipodi-0.dtd"
   xmlns="http://www.w3.org/2000/svg"
   xmlns:svg="http://www.w3.org/2000/svg">
  <defs
     id="defs40" />
  <sodipodi:namedview
     id="namedview38"
     pagecolor="#ffffff"
     bordercolor="#666666"
     borderopacity="1.0"
     inkscape:showpageshadow="2"
     inkscape:pageopacity="0.0"
     inkscape:pagecheckerboard="0"
     inkscape:deskcolor="#d1d1d1"
     inkscape:document-units="mm"
     showgrid="false"
     inkscape:zoom="15.41519"
     inkscape:cx="40.155199"
     inkscape:cy="15.536624"
     inkscape:window-width="2470"
     inkscape:window-height="1411"
     inkscape:window-x="1491"
     inkscape:window-y="1759"
     inkscape:window-maximized="1"
     inkscape:current-layer="svg36" />
  <path
     id="Sketch_w0000"
     d="m 11.41922,1.2205684 h 1.033138 v 4.1244965 h 1.546686 V 5.860627 H 11.41922 V 1.2205684"
     stroke="#000000"
     stroke-width="0.35 px"
     style="fill:#000000;fill-opacity:1;fill-rule:evenodd;stroke-width:0.1;stroke-miterlimit:4;stroke-dasharray:none;stroke:none" />
  <path
     id="Sketch_w0001"
     d="M 18.139652,5.860627 H 17.106514 V 3.7983787 H 16.061292 V 5.860627 H 15.028154 V 2.2899569 q 0,-0.4531307 0.302088,-0.7612596 0.302087,-0.3081289 0.743134,-0.3081289 h 1.015013 q 0.435005,0 0.743134,0.3020872 0.308129,0.3020871 0.308129,0.7491761 V 5.860627"
     stroke="#000000"
     stroke-width="0.35 px"
     style="fill:#000000;fill-opacity:1;fill-rule:evenodd;stroke-width:0.1;stroke-miterlimit:4;stroke-dasharray:none;stroke:none" />
  <path
     id="Sketch_w0002"
     d="M 17.106514,3.2828167 V 2.2778734 q 0,-0.2517393 -0.157085,-0.3947272 -0.157086,-0.1470157 -0.362505,-0.1470157 -0.225558,0 -0.376602,0.1530575 -0.14903,0.1490296 -0.14903,0.3947272 v 0.9989015 h 1.045222"
     stroke="#000000"
     stroke-width="0.35 px"
     style="fill:#ffffff;fill-opacity:1;fill-rule:evenodd;stroke-width:0.1;stroke-miterlimit:4;stroke-dasharray:none;stroke:none" />
  <path
     id="Sketch_w0003"
     d="M 19.152651,5.860627 V 1.2205684 h 2.102527 q 0.408824,0 0.706883,0.2940315 0.302088,0.2960454 0.302088,0.7471622 v 0.2456976 q 0,0.8820944 -1.019041,1.0291102 0.51959,0.012084 0.767301,0.3101428 0.25174,0.2960454 0.25174,0.6968143 v 0.2799341 q 0,0.4430612 -0.308129,0.7391066 -0.308129,0.2980593 -0.749176,0.2980593 h -2.054193"
     stroke="#000000"
     stroke-width="0.35 px"
     style="fill:#000000;fill-opacity:1;fill-rule:evenodd;stroke-width:0.1;stroke-miterlimit:4;stroke-dasharray:none;stroke:none" />
  <path
     id="Sketch_w0004"
     d="m 20.185789,5.3450649 h 0.495423 q 0.253753,0 0.402783,-0.163127 0.147016,-0.165141 0.147016,-0.3927133 V 4.2978295 q 0,-0.2456976 -0.134933,-0.3725742 -0.136946,-0.1268766 -0.396741,-0.1268766 h -0.513548 v 1.5466862"
     stroke="#000000"
     stroke-width="0.35 px"
     style="fill:#ffffff;fill-opacity:1;fill-rule:evenodd;stroke-width:0.1;stroke-miterlimit:4;stroke-dasharray:none;stroke:none" />
  <path
     id="Sketch_w0005"
     d="m 20.185789,3.2828167 h 0.507506 q 0.217503,0 0.378616,-0.1429879 0.1591,-0.1450019 0.1591,-0.3866716 V 2.2657899 q 0,-0.211461 -0.134933,-0.3705602 -0.136946,-0.1590992 -0.390699,-0.1590992 h -0.51959 v 1.5466862"
     stroke="#000000"
     stroke-width="0.35 px"
     style="fill:#ffffff;fill-opacity:1;fill-rule:evenodd;stroke-width:0.1;stroke-miterlimit:4;stroke-dasharray:none;stroke:none" />
  <path
     id="Sketch_w0006"
     d="m 5.313474,2.267877 h -0.7817 C 4.671591,1.083376 3.667644,1.195227 3.460984,1.185947 H 3.030594 C 1.914354,1.175489 1.638015,2.557178 2.589397,2.980982 L 3.555064,3.495857 C 3.995131,3.783511 4.074959,4.33003 4.088607,5.044167 V 5.861044 H 2.0854008 V 4.909887 C 2.1231408,4.061685 1.60424,3.9849245 1.1851275,3.7950701 0.766015,3.6052157 0.446691,3.3022673 0.302381,2.8191877 0.158072,2.336108 0.188776,1.672897 0.518847,1.1432492 0.848917,0.6136015 1.478353,0.217517 2.031944,0.220437 h 1.88566 q 0.956679,0.084337 1.39587,0.93043 0.439191,-0.846093 1.39587,-0.93043 h 1.88566 C 9.148595,0.217517 9.778031,0.6136015 10.108101,1.1432492 10.438172,1.672897 10.468876,2.336108 10.324567,2.8191877 10.180257,3.3022673 9.860933,3.6052157 9.4418205,3.7950701 9.022708,3.9849245 8.503807,4.061685 8.519704,4.909887 V 5.861044 H 6.5574665 V 5.044167 C 6.5519865,4.33003 6.6318165,3.783511 7.071884,3.495857 L 8.037551,2.980982 C 8.988933,2.557178 8.712594,1.175489 7.596354,1.185947 h -0.43039 c -0.20666,0.00928 -1.210607,-0.102571 -1.07079,1.08193 h -0.7817"
     stroke="#000000"
     stroke-width="0.35 px"
     style="fill:#3ca000;fill-opacity:1;fill-rule:evenodd;stroke-width:0.1;stroke-miterlimit:4;stroke-dasharray:none;stroke:none" />
  <path
     id="Sketch_w0007"
     d="m 2.0854008,6.986221 v -0.2 H 4.088607 a 0.4,0.4 0 0 0 0.399997,0.399996 l 1.6688625,4e-6 A 0.4,0.4 0 0 0 6.557464,6.786217 l 1.96224,4e-6 v 1.2 H 3.0854008 A 1,1 0 0 1 2.085404,6.986217"
     stroke="#000000"
     stroke-width="0.35 px"
     style="fill:#3ca000;fill-opacity:1;fill-rule:evenodd;stroke-width:0.1;stroke-miterlimit:4;stroke-dasharray:none;stroke:none" />
  <path
     id="Sketch_w0008"
     d="m 11.41922,6.7849183 h 1.975604 v 1.2 H 11.41922 v -1.2"
     stroke="#000000"
     stroke-width="0.35 px"
     style="fill:#000000;fill-opacity:1;fill-rule:evenodd;stroke-width:0.1;stroke-miterlimit:4;stroke-dasharray:none;stroke:none" />
  <path
     id="Sketch_w0009"
     d="m 15.802505,6.7849183 h 1.975604 v 1.2 h -1.975604 v -1.2"
     stroke="#000000"
     stroke-width="0.35 px"
     style="fill:#000000;fill-opacity:1;fill-rule:evenodd;stroke-width:0.1;stroke-miterlimit:4;stroke-dasharray:none;stroke:none" />
  <path
     id="Sketch_w0010"
     d="m 20.185789,6.7849183 h 1.975604 v 1.2 h -1.975604 v -1.2"
     stroke="#000000"
     stroke-width="0.35 px"
     style="fill:#000000;fill-opacity:1;fill-rule:evenodd;stroke-width:0.1;stroke-miterlimit:4;stroke-dasharray:none;stroke:none" />
</svg>
