<?xml version="1.0" encoding="UTF-8" standalone="no"?>
<svg
   width="22.51174655384635mm"
   height="8.881316795173456mm"
   viewBox="0 0 22.51174655384635 8.881316795173456"
   version="1.1"
   id="svg13215"
   sodipodi:docname="YLab Logo.svg"
   xml:space="preserve"
   inkscape:export-filename="YLab Logo large.png"
   inkscape:export-xdpi="564.94879"
   inkscape:export-ydpi="564.94879"
   inkscape:version="1.2.1 (9c6d41e410, 2022-07-14)"
   xmlns:inkscape="http://www.inkscape.org/namespaces/inkscape"
   xmlns:sodipodi="http://sodipodi.sourceforge.net/DTD/sodipodi-0.dtd"
   xmlns="http://www.w3.org/2000/svg"
   xmlns:svg="http://www.w3.org/2000/svg"><defs
     id="defs13219" /><sodipodi:namedview
     id="namedview13217"
     pagecolor="#ffffff"
     bordercolor="#666666"
     borderopacity="1.0"
     inkscape:showpageshadow="2"
     inkscape:pageopacity="0.0"
     inkscape:pagecheckerboard="0"
     inkscape:deskcolor="#d1d1d1"
     inkscape:document-units="mm"
     showgrid="false"
     inkscape:zoom="10.887034"
     inkscape:cx="43.032841"
     inkscape:cy="32.837227"
     inkscape:window-width="2470"
     inkscape:window-height="1411"
     inkscape:window-x="1491"
     inkscape:window-y="1759"
     inkscape:window-maximized="1"
     inkscape:current-layer="Sketch002" /><g
     inkscape:groupmode="layer"
     id="layer5"
     inkscape:label="BG"><rect
       style="fill:#ffffff;fill-opacity:1;stroke:none;stroke-width:0.0499999;stroke-linejoin:round;stroke-dasharray:none"
       id="rect17869"
       width="22.479914"
       height="8.821847"
       x="0.024302609"
       y="0.024302609" /></g><g
     inkscape:groupmode="layer"
     id="layer4"
     inkscape:label="Logo"
     style="display:inline"><g
       id="Sketch002"
       transform="matrix(1,0,0,-1,10.928539,8.6606131)"><g
         id="g17692"
         transform="matrix(1,0,0,0.68240713,0,0.44779973)"><path
           id="Sketch002_w0003"
           d="M 0.51757598,1.8747711 H 2.397576 V 0 H 0.51757598 v 1.8747711"
           stroke="#000000"
           stroke-width="0.35 px"
           style="fill:#000000;fill-opacity:1;fill-rule:evenodd;stroke:none;stroke-width:0.05;stroke-miterlimit:4;stroke-dasharray:none" /><path
           id="Sketch002_w0004"
           d="m 4.896815,1.8747711 h 1.88 V 0 h -1.88 v 1.8747711"
           stroke="#000000"
           stroke-width="0.35 px"
           style="fill:#000000;fill-opacity:1;fill-rule:evenodd;stroke:none;stroke-width:0.05;stroke-miterlimit:4;stroke-dasharray:none" /><path
           id="Sketch002_w0005"
           d="m 9.284145,1.8747711 h 1.88 V 0 h -1.88 v 1.8747711"
           stroke="#000000"
           stroke-width="0.35 px"
           style="fill:#000000;fill-opacity:1;fill-rule:evenodd;stroke:none;stroke-width:0.05;stroke-miterlimit:4;stroke-dasharray:none" /></g><g
         id="g17687"
         transform="translate(0,-0.1354575)"><path
           id="Sketch002_w0006"
           d="M 0.51757598,7.4400586 H 1.550714 V 3.3155621 H 3.0974002 V 2.8 H 0.51757598 v 4.6400586"
           stroke="#000000"
           stroke-width="0.35 px"
           style="fill:#000000;fill-opacity:1;fill-rule:evenodd;stroke:none;stroke-width:0.05;stroke-miterlimit:4;stroke-dasharray:none" /><path
           id="Sketch002_w0007"
           d="M 7.2380081,2.8 H 6.20487 V 4.8622483 H 5.1596485 V 2.8 H 4.1265104 v 3.5706701 q 0,0.4531307 0.3020872,0.7612596 0.3020871,0.3081289 0.7431344,0.3081289 h 1.0150128 q 0.4350055,0 0.7431344,-0.3020872 Q 7.2380081,6.8358843 7.2380081,6.3887953 V 2.8"
           stroke="#000000"
           stroke-width="0.35 px"
           style="fill:#000000;fill-opacity:1;fill-rule:evenodd;stroke:none;stroke-width:0.05;stroke-miterlimit:4;stroke-dasharray:none" /><path
           id="Sketch002_w0008"
           d="m 6.20487,5.3778103 v 1.0049433 q 0,0.2517393 -0.1570853,0.3947272 -0.1570853,0.1470157 -0.3625046,0.1470157 -0.2255584,0 -0.376602,-0.1530575 Q 5.1596485,6.6224094 5.1596485,6.3767118 V 5.3778103 H 6.20487"
           stroke="#000000"
           stroke-width="0.35 px"
           style="fill:#ffffff;fill-opacity:1;fill-rule:evenodd;stroke:none;stroke-width:0.05;stroke-miterlimit:4;stroke-dasharray:none" /><g
           id="g16934"
           style="fill:#000000;fill-opacity:1;stroke:none"><path
             id="Sketch002_w0009"
             d="m 8.251007,2.8 v 4.6400586 h 2.102527 q 0.408824,0 0.706883,-0.2940315 0.302088,-0.2960454 0.302088,-0.7471622 V 6.1531673 q 0,-0.8820944 -1.019041,-1.0291102 0.51959,-0.012084 0.767301,-0.3101428 0.25174,-0.2960454 0.25174,-0.6968143 V 3.8371659 q 0,-0.4430612 -0.308129,-0.7391066 Q 10.746247,2.8 10.3052,2.8 H 8.251007"
             stroke="#000000"
             stroke-width="0.35 px"
             style="fill:#000000;fill-opacity:1;fill-rule:evenodd;stroke:none;stroke-width:0.05;stroke-miterlimit:4;stroke-dasharray:none" /><path
             id="Sketch002_w0010"
             d="m 9.284145,3.3155621 h 0.4954229 q 0.2537531,0 0.4027831,0.163127 0.147016,0.165141 0.147016,0.3927133 v 0.4913951 q 0,0.2456976 -0.134933,0.3725742 -0.136946,0.1268766 -0.3967408,0.1268766 H 9.284145 V 3.3155621"
             stroke="#000000"
             stroke-width="0.35 px"
             style="fill:#fdfdfd;fill-opacity:1;fill-rule:evenodd;stroke:none;stroke-width:0.05;stroke-miterlimit:4;stroke-dasharray:none" /><path
             id="Sketch002_w0011"
             d="m 9.284145,5.3778103 h 0.5075064 q 0.2175026,0 0.3786156,0.1429879 0.1591,0.1450019 0.1591,0.3866716 v 0.4873673 q 0,0.211461 -0.134933,0.3705602 -0.136946,0.1590992 -0.3906991,0.1590992 H 9.284145 V 5.3778103"
             stroke="#000000"
             stroke-width="0.35 px"
             style="fill:#fdfdfd;fill-opacity:1;fill-rule:evenodd;stroke:none;stroke-width:0.05;stroke-miterlimit:4;stroke-dasharray:none" /></g></g><title
         id="title13212">b'FullLogo'</title><path
         id="Sketch_w0001"
         d="m -8.7334032,1.7271569 h 6.4430969 l 0.036454,-1.25505456 H -6.780903 c -1.034948,0.002993 -1.9468473,0.22011657 -1.9524979,1.25505346"
         stroke="#191919"
         stroke-width="0.35 px"
         style="font-variation-settings:normal;display:inline;fill:#208f2c;fill-opacity:1;fill-rule:evenodd;stroke:none;stroke-width:0.01;stroke-linecap:butt;stroke-linejoin:miter;stroke-miterlimit:4;stroke-dasharray:none;stroke-dashoffset:0;stroke-opacity:1;stop-color:#000000"
         inkscape:label="Sketch_w0001"
         sodipodi:nodetypes="ccccc" /><g
         id="g16125"
         style="font-variation-settings:normal;fill:#208f2c;fill-opacity:1;stroke-width:0.01;stroke-linecap:butt;stroke-linejoin:miter;stroke-miterlimit:4;stroke-dasharray:none;stroke-dashoffset:0;stroke-opacity:1;stop-color:#000000"
         transform="matrix(1,0,0,-1,-10.736245,8.3947348)"><path
           id="Sketch_w0002"
           style="font-variation-settings:normal;fill:#208f2c;fill-opacity:1;fill-rule:evenodd;stroke-width:0.01;stroke-linecap:butt;stroke-linejoin:miter;stroke-miterlimit:4;stroke-dasharray:none;stroke-dashoffset:0;stroke-opacity:1;stop-color:#000000;stop-opacity:1"
           d="M 3.813334,0.102439 C 5.01531,0.182709 5.119949,0.68436 5.2292045,0.6812823 5.33846,0.6782045 5.452332,0.170398 6.628104,0.102439 m 0.00165,0.00344 h 1.8564629 q 0.7689491,0 1.3108751,0.5565727 0.549249,0.552911 0.549249,1.3328451 0,1.2266569 -1.091175,1.6807031 L 9.1050378,3.7455713 Q 8.6619767,3.9249927 8.5521268,4.1227225 8.4459386,4.3167906 8.4459386,4.7964684 V 5.7301923 H 6.5675058 V 4.84407 q 0,-1.2266569 1.2303185,-1.9406811 l 0.1537899,-0.08788 q 0.5162944,-0.3075796 0.5162944,-0.8202124 0,-0.3698279 -0.2746247,-0.6590992 -0.2746247,-0.292933 -0.6700842,-0.292933 h -0.911754 q -0.8604906,0 -0.9227389,0.9373856 L 4.7513212,1.9769899 Q 4.6978252,1.043266 3.8373345,1.043266 h -0.911754 q -0.3954595,0 -0.6700842,0.292933 -0.2746247,0.2892713 -0.2746247,0.6590992 0,0.5126328 0.5162944,0.8202124 l 0.1537898,0.08788 Q 3.8812744,3.6174131 3.8812744,4.84407 V 5.7301923 H 2.0028416 V 4.7964684 q 0,-0.4796778 -0.1061882,-0.6737459 Q 1.7868035,3.9249927 1.3437424,3.7455713 L 1.1936142,3.6759993 Q 0.102439,3.2219531 0.102439,1.9952962 q 0,-0.7799341 0.549249,-1.3328451 0.5419262,-0.5565727 1.3108753,-0.5565727 h 1.8564628" /></g></g></g></svg>
